# xmcd
#
# Track frame offsets:
#	150
#	18672
#	32680
#	44872
#	64593
#	84092
#	97878
#	112252
#	129863
#	143710
#	159146
#
# Disc length: 2362 seconds
#
# Revision: 2
# Processed by: cddbd v1.5.1PL2 Copyright (c) Steve Scherf et al.
# Submitted via: audiograbber 1.83.01
#
DISCID=8609380b
DTITLE=Mindy Mccready - I'm Not So Tough
DYEAR=1999
DGENRE=Country
TTITLE0=I'm Not So Tough
TTITLE1=Tumble And Roll
TTITLE2=All I Want Is Everything
TTITLE3=Two Different Things
TTITLE4=Dream On
TTITLE5=I've Got A Feeling
TTITLE6=Thunder And Roses
TTITLE7=Over And Over
TTITLE8=Lucky Me
TTITLE9=Hold Me
TTITLE10=Take Me Apart
EXTD=
EXTT0=
EXTT1=
EXTT2=
EXTT3=
EXTT4=
EXTT5=
EXTT6=
EXTT7=
EXTT8=
EXTT9=
EXTT10=
PLAYORDER=
